PathFileType	4	(X/Y/Z)	E:\Qualisys_Data\Carbon_Farble_Plate\Data\Amateur_Runner\S1\T3\S1T3V21_c3d.trc
DataRate	CameraRate	NumFrames	NumMarkers	Units	OrigDataRate	OrigDataStartFrame	OrigNumFrames
200.000000	200.000000	4	39	mm	200.000000	37	298
Frame#	Time	LSHO			RSHO			LICST			RICST			LASIS			LHEEL			RASIS			LTROC			RTROC			SACR			LTH1			LSK4			LTH2			LTH3			RHM5			LSK2			LTH4			RTH1			LTOE			RTH2			RTH3			RTH4			LLEP			RLEP			LSK1			LSK3			RSK1			LHM5			RSK2			LFT1			RSK3			RSK4			LLME			RLME			RTOE			RHEEL			RFT1			RFT2			LFT2			
		X1	Y1	Z1	X2	Y2	Z2	X3	Y3	Z3	X4	Y4	Z4	X5	Y5	Z5	X6	Y6	Z6	X7	Y7	Z7	X8	Y8	Z8	X9	Y9	Z9	X10	Y10	Z10	X11	Y11	Z11	X12	Y12	Z12	X13	Y13	Z13	X14	Y14	Z14	X15	Y15	Z15	X16	Y16	Z16	X17	Y17	Z17	X18	Y18	Z18	X19	Y19	Z19	X20	Y20	Z20	X21	Y21	Z21	X22	Y22	Z22	X23	Y23	Z23	X24	Y24	Z24	X25	Y25	Z25	X26	Y26	Z26	X27	Y27	Z27	X28	Y28	Z28	X29	Y29	Z29	X30	Y30	Z30	X31	Y31	Z31	X32	Y32	Z32	X33	Y33	Z33	X34	Y34	Z34	X35	Y35	Z35	X36	Y36	Z36	X37	Y37	Z37	X38	Y38	Z38	X39	Y39	Z39	

38	0.185	-2186.66845703125	1481.600708007812	-536.417724609375	-2203.757080078125	1444.760375976562	-205.9567413330078	-2231.847412109375	990.8671875	-528.97900390625	-2245.44482421875	1035.355712890625	-228.8863983154297	-2188.660400390625	956.6665649414062	-494.344970703125	-2524.1455078125	484.3330993652344	-436.6174926757812	-2203.872314453125	988.45556640625	-229.6382598876953	-2289.57861328125	866.7547607421875	-537.32568359375	-2311.44970703125	898.5359497070312	-204.2539825439453	-2356.47314453125	1029.40966796875	-380.7171630859375	-2111.3828125	764.98486328125	-517.5153198242188	-2370.119384765625	506.9999694824219	-466.5604248046875	-2183.10791015625	728.3645629882812	-549.2610473632812	-2069.745361328125	669.8336181640625	-510.765380859375	-2230.166259765625	72.6874008178711	-243.2538757324219	-2276.380615234375	519.3812255859375	-507.7090454101562	-2145.552734375	636.337890625	-533.6815795898438	-2162.166015625	779.9508056640625	-212.5498504638672	-2475.056396484375	241.3447723388672	-424.9109802246094	-2239.094970703125	765.0958862304688	-191.9732208251953	-2147.30078125	679.8512573242188	-223.4718322753906	-2225.82568359375	667.3125610351562	-210.5744018554688	-2077.376953125	512.1656494140625	-498.7329711914062	-2177.972412109375	501.8447265625	-251.8153076171875	-2268.2529296875	437.3763427734375	-495.0447082519531	-2368.7998046875	430.6845092773438	-488.4030456542969	-2234.501953125	320.4843139648438	-244.8246459960938	-2512.756103515625	298.3108825683594	-489.3180541992188	-2309.430419921875	351.3374328613281	-249.8377838134766	-2551.751953125	473.1654052734375	-409.3959350585938	-2270.29052734375	228.5647277832031	-261.5212707519531	-2344.6669921875	261.5896911621094	-274.7334289550781	-2488.248291015625	438.7975463867188	-482.8086547851562	-2352.085693359375	127.8234176635742	-262.8992004394531	-2174.03076171875	76.31190490722656	-315.5628662109375	-2423.44140625	101.1511611938477	-304.586669921875	-2419.05419921875	71.3781509399414	-333.5353088378906	-2426.248046875	76.72496032714844	-282.0489196777344	-2557.334228515625	473.3816223144531	-461.5224304199219
39	0.19	-2170.146240234375	1483.918212890625	-537.3574829101562	-2181.909423828125	1447.180908203125	-206.98193359375	-2212.74462890625	993.8869018554688	-528.7476806640625	-2222.71630859375	1037.458740234375	-228.3168640136719	-2166.8662109375	961.03076171875	-493.8132629394531	-2493.587646484375	475.9180297851562	-437.3088989257812	-2181.8193359375	990.1646728515624	-229.9040985107422	-2269.7216796875	869.2619018554688	-536.5860595703125	-2289.755126953125	900.3451538085938	-202.0649871826172	-2336.473388671875	1031.81787109375	-378.8044128417969	-2089.128662109375	772.0657958984375	-517.1881103515625	-2339.8935546875	503.9256591796875	-467.2100219726562	-2159.954833984375	733.447265625	-548.358642578125	-2044.126342773438	678.1415405273438	-509.9634704589844	-2230.063720703125	72.30574035644531	-243.4168853759766	-2246.819091796875	518.9646606445312	-507.4937438964844	-2119.186279296875	642.1869506835938	-532.446533203125	-2145.422119140625	776.3853149414062	-213.4005279541016	-2434.002197265625	234.5545043945312	-425.7950439453125	-2221.70849609375	764.6407470703125	-192.4894409179688	-2134.48095703125	675.5765380859375	-223.3230590820312	-2214.638671875	666.4805297851562	-210.6618499755859	-2046.99658203125	519.7188720703125	-497.662109375	-2169.289306640625	500.0499877929688	-251.8988037109375	-2234.733154296875	437.4844360351562	-492.8446350097656	-2337.00634765625	429.538330078125	-488.2763366699219	-2229.1845703125	321.4288940429688	-245.0927581787109	-2473.516845703125	290.8339233398438	-489.8676452636719	-2304.4677734375	353.0527648925781	-249.6338653564453	-2520.7685546875	462.7070007324219	-408.769287109375	-2267.042236328125	228.9857025146484	-261.9109497070312	-2338.379638671875	263.1946411132812	-274.8453063964844	-2455.520263671875	431.5431518554688	-482.1424255371094	-2351.339111328125	129.0184173583984	-262.4175415039062	-2173.798095703125	75.84255981445312	-315.4187927246094	-2424.085205078125	102.7077026367188	-304.3804626464844	-2418.554443359375	72.20072937011719	-332.743896484375	-2425.60498046875	77.90984344482422	-281.0202331542969	-2526.920654296875	463.5882873535156	-461.718994140625
40	0.195	-2153.647216796875	1487.04443359375	-538.6615600585938	-2159.434326171875	1450.811157226562	-207.3482818603516	-2198.2734375	997.0506591796876	-527.8052368164062	-2198.6630859375	1039.877319335938	-228.2264099121094	-2148.61083984375	964.078857421875	-495.4285888671875	-2463.05322265625	466.1291198730469	-436.9938354492188	-2156.620361328125	992.155029296875	-231.5061645507812	-2249.8779296875	872.3988647460938	-536.0174560546875	-2268.30078125	902.2999267578124	-201.2026977539062	-2314.95849609375	1033.664672851562	-375.7534790039062	-2066.635986328125	778.7335205078125	-516.5276489257812	-2310.79443359375	501.2081909179688	-467.7284240722656	-2136.4052734375	737.6779174804688	-546.9104614257812	-2019.25732421875	686.2955932617188	-509.1389770507812	-2229.573486328125	72.56433868408203	-242.9789886474609	-2216.737548828125	519.2118530273438	-507.0536499023438	-2092.774658203125	648.2992553710938	-531.1531372070312	-2128.06396484375	773.6817626953125	-213.1436004638672	-2388.9248046875	228.5211029052734	-425.216064453125	-2204.548828125	765.986328125	-192.4960784912109	-2121.321044921875	672.58935546875	-223.5364532470703	-2202.14404296875	667.6373291015625	-210.3117370605469	-2017.047485351562	527.7313842773438	-496.7642211914062	-2159.222900390625	499.3296203613281	-252.8765563964844	-2202.695556640625	438.6045532226562	-492.4392700195312	-2302.6689453125	424.757080078125	-487.3232727050781	-2223.951171875	322.0461120605469	-245.3183288574219	-2434.156494140625	282.7380065917969	-489.9691467285156	-2298.295166015625	355.1104431152344	-248.8709411621094	-2489.720947265625	452.1553955078125	-408.6599426269531	-2263.7197265625	230.2746887207031	-261.6406860351562	-2336.16162109375	265.1735229492188	-274.6689147949219	-2423.170166015625	424.5159606933594	-482.2990112304688	-2348.51513671875	132.0048828125	-261.4664306640625	-2173.246826171875	75.66620635986328	-315.4035034179688	-2424.49560546875	104.771484375	-303.4185485839844	-2418.697265625	74.63823699951172	-332.6960144042969	-2425.483154296875	78.7647933959961	-280.4600524902344	-2496.390869140625	452.9901428222656	-460.8603210449219
41	0.2	-2136.85693359375	1490.426513671875	-539.646728515625	-2137.2734375	1454.223999023438	-208.1678924560547	-2179.97216796875	1000.330749511719	-528.1289672851562	-2177.435791015625	1041.21728515625	-227.1748352050781	-2130.13134765625	966.8681030273438	-496.2951049804688	-2434.62109375	457.1139831542969	-438.7510375976562	-2134.181884765625	994.2838134765624	-232.2256622314453	-2229.3984375	875.6580810546875	-535.1502075195312	-2245.882080078125	904.8861694335938	-200.0490417480469	-2294.050537109375	1036.295654296875	-373.6124267578125	-2045.037841796875	786.4678955078125	-516.1197509765625	-2280.25732421875	497.3812255859375	-467.6817321777344	-2113.63623046875	743.5301513671875	-546.1104736328125	-1994.568115234375	695.0184936523438	-508.3765258789062	-2228.54052734375	73.17736053466797	-242.2425689697266	-2187.281982421875	518.2771606445312	-506.7347412109375	-2067.4365234375	654.733642578125	-530.1297607421875	-2110.5673828125	772.76416015625	-213.2788238525391	-2350.1279296875	221.114013671875	-426.5684204101562	-2188.328369140625	767.6138305664062	-192.7545166015625	-2107.9912109375	671.1983642578125	-222.7646484375	-2188.030029296875	669.1322631835938	-209.6142883300781	-1988.023193359375	536.26953125	-495.8013305664062	-2149.1611328125	500.7920227050781	-253.7844696044922	-2169.391845703125	437.893798828125	-491.5818176269531	-2269.634521484375	421.3152770996094	-486.8634033203125	-2218.5654296875	322.8762512207031	-245.3362121582031	-2393.303466796875	274.037353515625	-489.6609497070312	-2293.274658203125	358.0620422363281	-248.4053802490234	-2458.37548828125	440.8861389160156	-408.2271118164062	-2259.70751953125	232.6710968017578	-261.3416442871094	-2331.4716796875	268.620361328125	-274.0911560058594	-2390.4150390625	416.2939453125	-482.4210205078125	-2347.507568359375	134.7325592041016	-260.8182373046875	-2173.045166015625	75.27899169921875	-315.4613342285156	-2424.13623046875	105.2439346313477	-302.3793029785156	-2418.401123046875	76.16651153564453	-332.3009643554688	-2425.4658203125	79.5284423828125	-279.7657470703125	-2462.772705078125	440.0809631347656	-460.6077880859375
